<svg x="0" y="0" width="1024" height="512" viewBox="0 0 1024 512" xmlns="http://www.w3.org/2000/svg" xmlns:xlink="http://www.w3.org/1999/xlink" xmlns:fi="http://pattern.flaticon.com/"><rect x="0px" y="0px" width="100%" height="100%" opacity="1" fill="#dac3c7"/><defs><g transform="matrix(0.17578125 0 0 0.17578125 305 305)" id="L1_275"><path d="m234.003 240.717h-219.79c-3.708 0-6.713-3.006-6.713-6.713v-219.791c0-3.708 3.006-6.713 6.713-6.713h219.79c3.708 0 6.713 3.006 6.713 6.713v219.79c.001 3.708-3.005 6.714-6.713 6.714z" fill="#698ed5"/><path d="m234.003 7.5h-33.287v134.282c0 43.594-35.34 78.934-78.934 78.934h-114.282v13.287c0 3.708 3.006 6.713 6.713 6.713h219.79c3.708 0 6.713-3.006 6.713-6.713v-219.79c.001-3.707-3.005-6.713-6.713-6.713z" fill="#4073c8"/><g fill="#f1f1f4"><path d="m7.5 14.213v109.895c64.401 0 116.608-52.207 116.608-116.608h-109.895c-3.707 0-6.713 3.006-6.713 6.713z"/><path d="m7.5 124.108v109.895c0 3.708 3.006 6.713 6.713 6.713h109.895c0-64.4-52.207-116.608-116.608-116.608z"/><path d="m240.717 234.003v-109.895c-64.401 0-116.608 52.207-116.608 116.608h109.895c3.707.001 6.713-3.005 6.713-6.713z"/></g><path d="m7.5 14.213v65.886c40.095 0 72.599-32.504 72.599-72.599h-65.886c-3.707 0-6.713 3.006-6.713 6.713z" fill="#cbe2ff"/><path d="m234.003 7.5h-109.895c0 64.401 52.207 116.608 116.608 116.608v-109.895c.001-3.707-3.005-6.713-6.713-6.713z" fill="#f1f1f4"/><path d="m234.003 7.5h-65.886c0 40.095 32.504 72.599 72.599 72.599v-65.886c.001-3.707-3.005-6.713-6.713-6.713z" fill="#cbe2ff"/><path d="m7.5 168.118v65.886c0 3.708 3.006 6.713 6.713 6.713h65.886c0-40.096-32.504-72.599-72.599-72.599z" fill="#cbe2ff"/><path d="m121.782 220.717h-114.282v13.287c0 3.708 3.006 6.713 6.713 6.713h109.895c0-6.82-.586-13.503-1.709-20.003-.205.002-.411.003-.617.003z" fill="#dfdde2"/><path d="m200.717 131.15v10.632c0 42.235-33.171 76.722-74.882 78.832-1.135 6.531-1.727 13.247-1.727 20.102h109.895c3.708 0 6.713-3.006 6.713-6.713v-109.895c-14.052 0-27.524 2.486-39.999 7.042z" fill="#dfdde2"/><path d="m234.003 7.5h-33.287v109.567c12.476 4.556 25.948 7.042 40 7.042v-109.896c.001-3.707-3.005-6.713-6.713-6.713z" fill="#dfdde2"/><path d="m234.003 7.5h-33.287v60.595c11.47 7.587 25.219 12.004 40 12.004v-65.886c.001-3.707-3.005-6.713-6.713-6.713z" fill="#9dc6fb"/><path d="m7.5 220.717v13.287c0 3.708 3.006 6.713 6.713 6.713h65.886c0-6.937-.973-13.646-2.79-20z" fill="#9dc6fb"/><path d="m240.717 234.003v-65.886c-40.095 0-72.599 32.504-72.599 72.599h65.886c3.707.001 6.713-3.005 6.713-6.713z" fill="#9dc6fb"/><path d="m123.692 152.603-28.079-28.079c-.23-.23-.23-.602 0-.832l28.079-28.079c.23-.23.602-.23.832 0l28.079 28.079c.23.23.23.602 0 .832l-28.079 28.079c-.23.229-.602.229-.832 0z" fill="#f1f1f4"/><path d="m234.003 473.933h-219.79c-3.708 0-6.713-3.006-6.713-6.713v-219.79c0-3.708 3.006-6.713 6.713-6.713h219.79c3.708 0 6.713 3.006 6.713 6.713v219.79c.001 3.708-3.005 6.713-6.713 6.713z" fill="#698ed5"/><path d="m234.003 240.717h-33.287v134.282c0 43.594-35.34 78.934-78.934 78.934h-114.282v13.287c0 3.708 3.006 6.713 6.713 6.713h219.79c3.708 0 6.713-3.006 6.713-6.713v-219.79c.001-3.708-3.005-6.713-6.713-6.713z" fill="#4073c8"/><path d="m7.5 247.43v109.895c64.401 0 116.608-52.207 116.608-116.608h-109.895c-3.707 0-6.713 3.005-6.713 6.713z" fill="#f1f1f4"/><path d="m7.5 357.325v109.895c0 3.708 3.006 6.713 6.713 6.713h109.895c0-64.401-52.207-116.608-116.608-116.608z" fill="#f1f1f4"/><path d="m240.717 467.22v-109.895c-64.401 0-116.608 52.207-116.608 116.608h109.895c3.707 0 6.713-3.005 6.713-6.713z" fill="#f1f1f4"/><path d="m7.5 247.43v65.886c40.095 0 72.599-32.504 72.599-72.599h-65.886c-3.707 0-6.713 3.005-6.713 6.713z" fill="#cbe2ff"/><path d="m234.003 240.717h-109.895c0 64.401 52.207 116.608 116.608 116.608v-109.895c.001-3.708-3.005-6.713-6.713-6.713z" fill="#f1f1f4"/><path d="m234.003 240.717h-65.886c0 40.095 32.504 72.599 72.599 72.599v-65.886c.001-3.708-3.005-6.713-6.713-6.713z" fill="#cbe2ff"/><path d="m7.5 401.334v65.886c0 3.708 3.006 6.713 6.713 6.713h65.886c0-40.095-32.504-72.599-72.599-72.599z" fill="#cbe2ff"/><path d="m121.782 453.933h-114.282v13.287c0 3.708 3.006 6.713 6.713 6.713h109.895c0-6.82-.586-13.503-1.709-20.003-.205.002-.411.003-.617.003z" fill="#dfdde2"/><path d="m200.717 364.367v10.632c0 42.235-33.171 76.722-74.882 78.832-1.135 6.531-1.727 13.247-1.727 20.102h109.895c3.708 0 6.713-3.006 6.713-6.713v-109.895c-14.052 0-27.524 2.486-39.999 7.042z" fill="#dfdde2"/><path d="m234.003 240.717h-33.287v109.567c12.476 4.556 25.948 7.042 40 7.042v-109.896c.001-3.708-3.005-6.713-6.713-6.713z" fill="#dfdde2"/><path d="m234.003 240.717h-33.287v60.595c11.47 7.587 25.219 12.004 40 12.004v-65.886c.001-3.708-3.005-6.713-6.713-6.713z" fill="#9dc6fb"/><path d="m7.5 453.933v13.287c0 3.708 3.006 6.713 6.713 6.713h65.886c0-6.937-.973-13.646-2.79-20z" fill="#9dc6fb"/><path d="m240.717 467.22v-65.886c-40.095 0-72.599 32.504-72.599 72.599h65.886c3.707 0 6.713-3.005 6.713-6.713z" fill="#9dc6fb"/><path d="m123.692 385.819-28.079-28.079c-.23-.23-.23-.602 0-.832l28.079-28.079c.23-.23.602-.23.832 0l28.079 28.079c.23.23.23.602 0 .832l-28.079 28.079c-.23.23-.602.23-.832 0z" fill="#f1f1f4"/><path d="m497.787 504.5h-219.79c-3.708 0-6.713-3.006-6.713-6.713v-219.79c0-3.708 3.006-6.713 6.713-6.713h219.79c3.708 0 6.713 3.006 6.713 6.713v219.79c0 3.707-3.006 6.713-6.713 6.713z" fill="#698ed5"/><path d="m497.787 271.283h-33.287v134.282c0 43.594-35.34 78.934-78.934 78.934h-114.283v13.287c0 3.708 3.006 6.713 6.713 6.713h219.79c3.708 0 6.713-3.006 6.713-6.713v-219.79c.001-3.707-3.005-6.713-6.712-6.713z" fill="#4073c8"/><path d="m271.283 277.996v109.895c64.401 0 116.608-52.207 116.608-116.608h-109.894c-3.708 0-6.714 3.006-6.714 6.713z" fill="#f1f1f4"/><path d="m271.283 387.892v109.895c0 3.708 3.006 6.713 6.713 6.713h109.895c.001-64.401-52.207-116.608-116.608-116.608z" fill="#f1f1f4"/><path d="m504.5 497.787v-109.895c-64.401 0-116.608 52.207-116.608 116.608h109.895c3.707 0 6.713-3.006 6.713-6.713z" fill="#f1f1f4"/><path d="m271.283 277.996v65.886c40.095 0 72.599-32.504 72.599-72.599h-65.886c-3.707 0-6.713 3.006-6.713 6.713z" fill="#cbe2ff"/><path d="m497.787 271.283h-109.895c0 64.401 52.207 116.608 116.608 116.608v-109.895c0-3.707-3.006-6.713-6.713-6.713z" fill="#f1f1f4"/><path d="m497.787 271.283h-65.886c0 40.095 32.504 72.599 72.599 72.599v-65.886c0-3.707-3.006-6.713-6.713-6.713z" fill="#cbe2ff"/><path d="m271.283 431.901v65.886c0 3.708 3.006 6.713 6.713 6.713h65.886c0-40.095-32.503-72.599-72.599-72.599z" fill="#cbe2ff"/><path d="m385.566 484.5h-114.283v13.287c0 3.708 3.006 6.713 6.713 6.713h109.895c0-6.82-.586-13.503-1.709-20.003-.205.002-.411.003-.616.003z" fill="#dfdde2"/><path d="m464.5 394.933v10.632c0 42.235-33.171 76.722-74.882 78.832-1.135 6.531-1.727 13.247-1.727 20.102h109.895c3.708 0 6.713-3.006 6.713-6.713v-109.894c-14.052 0-27.523 2.486-39.999 7.041z" fill="#dfdde2"/><path d="m497.787 271.283h-33.287v109.567c12.476 4.556 25.948 7.042 40 7.042v-109.896c0-3.707-3.006-6.713-6.713-6.713z" fill="#dfdde2"/><path d="m497.787 271.283h-33.287v60.595c11.47 7.587 25.219 12.004 40 12.004v-65.886c0-3.707-3.006-6.713-6.713-6.713z" fill="#9dc6fb"/><path d="m271.283 484.5v13.287c0 3.708 3.006 6.713 6.713 6.713h65.886c0-6.937-.973-13.646-2.79-20z" fill="#9dc6fb"/><path d="m504.5 497.787v-65.886c-40.095 0-72.599 32.504-72.599 72.599h65.886c3.707 0 6.713-3.006 6.713-6.713z" fill="#9dc6fb"/><path d="m387.476 416.386-28.079-28.079c-.23-.23-.23-.602 0-.832l28.079-28.079c.23-.23.602-.23.832 0l28.079 28.079c.23.23.23.602 0 .832l-28.079 28.079c-.23.23-.602.23-.832 0z" fill="#f1f1f4"/><path d="m467.22 240.717h-219.79c-3.708 0-6.713-3.006-6.713-6.713v-219.791c0-3.708 3.006-6.713 6.713-6.713h219.79c3.708 0 6.713 3.006 6.713 6.713v219.79c0 3.708-3.005 6.714-6.713 6.714z" fill="#698ed5"/><path d="m467.22 7.5h-33.287v134.282c0 43.594-35.34 78.934-78.934 78.934h-114.282v13.287c0 3.708 3.006 6.713 6.713 6.713h219.79c3.708 0 6.713-3.006 6.713-6.713v-219.79c0-3.707-3.005-6.713-6.713-6.713z" fill="#4073c8"/><path d="m240.717 14.213v109.895c64.401 0 116.608-52.207 116.608-116.608h-109.895c-3.708 0-6.713 3.006-6.713 6.713z" fill="#f1f1f4"/><path d="m240.717 124.108v109.895c0 3.708 3.006 6.713 6.713 6.713h109.895c0-64.4-52.207-116.608-116.608-116.608z" fill="#f1f1f4"/><path d="m473.933 234.003v-109.895c-64.401 0-116.608 52.207-116.608 116.608h109.895c3.708.001 6.713-3.005 6.713-6.713z" fill="#f1f1f4"/><path d="m240.717 14.213v65.886c40.095 0 72.599-32.504 72.599-72.599h-65.886c-3.708 0-6.713 3.006-6.713 6.713z" fill="#cbe2ff"/><path d="m467.22 7.5h-109.895c0 64.401 52.207 116.608 116.608 116.608v-109.895c0-3.707-3.005-6.713-6.713-6.713z" fill="#f1f1f4"/><path d="m467.22 7.5h-65.886c0 40.095 32.504 72.599 72.599 72.599v-65.886c0-3.707-3.005-6.713-6.713-6.713z" fill="#cbe2ff"/><path d="m240.717 168.118v65.886c0 3.708 3.006 6.713 6.713 6.713h65.886c0-40.096-32.504-72.599-72.599-72.599z" fill="#cbe2ff"/><path d="m354.999 220.717h-114.282v13.287c0 3.708 3.006 6.713 6.713 6.713h109.895c0-6.82-.586-13.503-1.709-20.003-.206.002-.411.003-.617.003z" fill="#dfdde2"/><path d="m433.933 131.15v10.632c0 42.235-33.171 76.722-74.882 78.832-1.135 6.531-1.727 13.247-1.727 20.102h109.896c3.708 0 6.713-3.006 6.713-6.713v-109.895c-14.052 0-27.524 2.486-40 7.042z" fill="#dfdde2"/><path d="m467.22 7.5h-33.287v109.567c12.476 4.556 25.948 7.042 40 7.042v-109.896c0-3.707-3.005-6.713-6.713-6.713z" fill="#dfdde2"/><path d="m467.22 7.5h-33.287v60.595c11.47 7.587 25.219 12.004 40 12.004v-65.886c0-3.707-3.005-6.713-6.713-6.713z" fill="#9dc6fb"/><path d="m240.717 220.717v13.287c0 3.708 3.006 6.713 6.713 6.713h65.886c0-6.937-.973-13.646-2.79-20z" fill="#9dc6fb"/><path d="m473.933 234.003v-65.886c-40.095 0-72.599 32.504-72.599 72.599h65.886c3.708.001 6.713-3.005 6.713-6.713z" fill="#9dc6fb"/><path d="m356.909 152.603-28.079-28.079c-.23-.23-.23-.602 0-.832l28.079-28.079c.23-.23.602-.23.832 0l28.079 28.079c.23.23.23.602 0 .832l-28.079 28.079c-.23.229-.602.229-.832 0z" fill="#f1f1f4"/><path d="m14.213 481.433h219.791c7.837 0 14.213-6.376 14.213-14.213v-170.937c0-4.142-3.358-7.5-7.5-7.5s-7.5 3.358-7.5 7.5v9.103c-29.915-3.447-53.723-27.254-57.17-57.169h57.17v13.066c0 4.142 3.358 7.5 7.5 7.5s7.5-3.358 7.5-7.5v-13.067h219.003c7.837 0 14.213-6.376 14.213-14.213v-219.79c0-7.837-6.376-14.213-14.213-14.213h-219.79c-2.426 0-4.713.611-6.713 1.688-2-1.077-4.287-1.688-6.713-1.688h-219.791c-7.837 0-14.213 6.376-14.213 14.213v219.791c0 2.427.611 4.713 1.688 6.713-1.077 2-1.688 4.287-1.688 6.713v219.79c0 7.837 6.376 14.213 14.213 14.213zm.787-160.966c38.194-3.563 68.688-34.056 72.251-72.25h29.103c-3.695 54.203-47.151 97.658-101.354 101.353zm0-144.42c29.915 3.447 53.723 27.254 57.17 57.169h-57.17zm218.217 57.169h-57.17c3.447-29.915 27.254-53.722 57.17-57.169zm0-72.25c-38.194 3.563-68.688 34.056-72.251 72.25h-29.103c3.695-54.203 47.15-97.658 101.354-101.353zm-145.966 72.25c-3.563-38.194-34.057-68.687-72.251-72.25v-29.103c54.203 3.695 97.659 47.15 101.354 101.353zm-15.081 15.001c-3.447 29.915-27.254 53.722-57.17 57.169v-57.169zm51.938 35.01c12.541 34.294 39.804 61.557 74.098 74.098-34.294 12.541-61.557 39.804-74.098 74.098-12.541-34.294-39.804-61.557-74.098-74.098 34.294-12.541 61.557-39.804 74.098-74.098zm0-85.02c-12.541-34.294-39.804-61.557-74.098-74.098 34.294-12.541 61.557-39.804 74.098-74.098 12.541 34.294 39.804 61.557 74.098 74.098-34.293 12.541-61.556 39.804-74.098 74.098zm-109.108 211.057c29.915 3.447 53.723 27.254 57.17 57.169h-57.17zm72.251 57.169c-3.563-38.194-34.057-68.687-72.251-72.25v-29.103c54.203 3.695 97.659 47.15 101.354 101.354h-29.103zm145.966-101.353v29.103c-38.194 3.563-68.688 34.056-72.251 72.25h-29.103c3.695-54.203 47.151-97.659 101.354-101.353zm0 101.353h-57.17c3.448-29.913 27.257-53.721 57.17-57.169zm0-145.966v29.103c-54.203-3.695-97.659-47.15-101.354-101.353h29.103c3.563 38.194 34.057 68.687 72.251 72.25zm15-144.42c29.915 3.447 53.722 27.254 57.169 57.169h-57.169zm72.25 57.169c-3.563-38.194-34.056-68.687-72.25-72.25v-29.103c54.203 3.695 97.658 47.15 101.353 101.353zm145.966-72.25c-38.194 3.563-68.688 34.056-72.251 72.25h-29.102c3.695-54.203 47.15-97.658 101.354-101.353v29.103zm-57.17 72.25c3.447-29.915 27.254-53.722 57.17-57.169v57.169zm57.17-161.046c-29.915-3.447-53.723-27.254-57.17-57.17h57.17zm-72.251-57.17c3.563 38.194 34.057 68.688 72.251 72.251v29.103c-54.203-3.695-97.659-47.151-101.353-101.354zm-84.513 86.844c2.656 3.179 7.385 3.603 10.564.948 17.038-14.231 29.707-32.461 37.102-52.754 12.546 34.281 39.803 61.533 74.088 74.07-34.294 12.541-61.557 39.804-74.098 74.098-12.537-34.282-39.785-61.538-74.061-74.085 1.576-.576 3.143-1.184 4.701-1.826 3.83-1.578 5.655-5.962 4.078-9.792-1.578-3.83-5.959-5.655-9.792-4.078-10.874 4.48-22.292 7.138-34.034 7.93v-29.104c38.194-3.563 68.687-34.057 72.25-72.251h29.102c-2.022 29.604-15.965 57.079-38.952 76.28-3.179 2.656-3.603 7.385-.948 10.564zm-61.452-29.674v-57.17h57.169c-3.447 29.915-27.254 53.723-57.169 57.17zm-15 0c-29.915-3.447-53.723-27.254-57.17-57.17h57.17zm-72.251-57.17c3.563 38.194 34.057 68.688 72.251 72.251v29.103c-54.203-3.695-97.659-47.151-101.354-101.354zm-145.966 101.354v-29.103c38.194-3.563 68.688-34.057 72.251-72.251h29.103c-3.695 54.203-47.151 97.659-101.354 101.354zm57.17-101.354c-3.447 29.915-27.255 53.723-57.17 57.17v-57.17z"/><path d="m497.787 263.783h-219.79c-7.837 0-14.213 6.376-14.213 14.213v219.79c0 7.837 6.376 14.213 14.213 14.213h219.791c7.837 0 14.213-6.376 14.213-14.213v-219.79c-.001-7.837-6.377-14.213-14.214-14.213zm-.787 72.17c-29.915-3.447-53.723-27.254-57.17-57.17h57.17zm-72.251-57.17c3.563 38.194 34.057 68.688 72.251 72.251v29.103c-54.203-3.695-97.659-47.15-101.354-101.354zm37.241 109.109c-34.294 12.541-61.557 39.804-74.098 74.098-12.541-34.294-39.804-61.557-74.098-74.098 34.294-12.541 61.557-39.804 74.098-74.098 12.541 34.293 39.804 61.556 74.098 74.098zm-183.207-7.755v-29.103c38.194-3.563 68.688-34.057 72.251-72.251h29.103c-3.695 54.203-47.151 97.659-101.354 101.354zm57.17-101.354c-3.447 29.915-27.254 53.723-57.17 57.17v-57.17zm-57.17 161.047c29.915 3.447 53.723 27.254 57.17 57.17h-57.17zm72.251 57.17c-3.563-38.194-34.057-68.688-72.251-72.251v-29.103c54.203 3.695 97.659 47.15 101.354 101.354zm88.799 0c1.526-13.202 7.058-25.661 15.957-35.689 2.749-3.098 2.466-7.838-.632-10.588-3.099-2.749-7.838-2.466-10.588.632-11.339 12.778-18.236 28.761-19.819 45.645h-29.105c3.695-54.203 47.15-97.659 101.354-101.354v29.1c-6.864.637-13.584 2.151-20.061 4.524-3.889 1.425-5.887 5.733-4.461 9.623s5.734 5.886 9.623 4.461c4.817-1.765 9.805-2.944 14.899-3.527v57.173z"/><path d="m118.389 90.311-28.084 28.084c-3.147 3.154-3.145 8.283.006 11.433l28.079 28.079c3.127 3.128 8.255 3.191 11.438 0l28.073-28.073c3.166-3.16 3.169-8.28.005-11.444l-28.079-28.079c-3.15-3.151-8.279-3.154-11.438 0zm5.719 52.101-18.304-18.303 18.304-18.304 18.303 18.304z"/><path d="m350.887 157.9c3.19 3.196 8.319 3.137 11.444.005l28.079-28.079c3.15-3.15 3.153-8.279 0-11.438l-28.079-28.079c-3.159-3.16-8.277-3.162-11.438 0l-28.079 28.079c-3.191 3.191-3.129 8.316 0 11.438zm5.725-52.095 18.304 18.304-18.304 18.303-18.303-18.303z"/><path d="m382.172 354.094-28.078 28.078c-3.154 3.153-3.154 8.285 0 11.438.39.39 28.468 28.468 28.083 28.084 3.143 3.136 8.27 3.151 11.433-.006l28.084-28.084c3.144-3.151 3.144-8.277-.006-11.433l-28.079-28.078c-3.151-3.152-8.283-3.152-11.437.001zm5.72 52.102-18.304-18.304 18.304-18.304 18.304 18.304z"/><path d="m118.395 391.128c3.143 3.136 8.27 3.151 11.433-.006l28.072-28.072c3.196-3.19 3.137-8.319.005-11.444l-28.078-28.079c-3.153-3.153-8.285-3.153-11.438 0l-28.079 28.079c-3.16 3.159-3.162 8.277 0 11.438 26.469 26.469 28.01 27.984 28.085 28.084zm5.713-52.107 18.303 18.304-18.303 18.304-18.304-18.304z"/></g><g transform="matrix(0.09765625 0 0 0.09765625 150 325)" id="L1_276"><circle cx="256" cy="112" r="39" fill="#ecb780"/><circle cx="256" cy="112" r="13" fill="#756e78"/><path d="m314.919 275.524c-24.092 13.91-46.216.58-46.216.58s-.482-25.825 23.61-39.735c16.979-9.803 32.981-6.076 40.95-3.021 3.322 1.274 5.306 4.71 4.748 8.223-1.34 8.428-6.113 24.15-23.092 33.953z" fill="#78d0b1"/><path d="m197.082 274.312c24.092 13.91 46.216.58 46.216.58s.482-25.825-23.61-39.735c-16.979-9.803-32.981-6.076-40.95-3.021-3.322 1.274-5.306 4.71-4.748 8.223 1.339 8.429 6.112 24.15 23.092 33.953z" fill="#78d0b1"/><path d="m278.564 79.732c5.197-5.256 11.949-10.463 19.802-14.997 16.945-9.783 37.304-7.961 45.821-6.593 2.189.352 3.496 2.616 2.706 4.687-3.074 8.06-11.675 26.602-28.62 36.386-7.854 4.534-15.739 7.778-22.89 9.651-1.003-12.063-7.422-22.587-16.819-29.134zm-84.836 19.483c7.853 4.534 15.739 7.778 22.89 9.651 1.002-12.063 7.421-22.587 16.818-29.134-5.197-5.256-11.949-10.463-19.802-14.997-16.945-9.783-37.304-7.961-45.821-6.593-2.189.352-3.496 2.616-2.706 4.687 3.075 8.06 11.675 26.602 28.621 36.386zm62.272-26.554c6.016 0 11.718 1.345 16.822 3.749 1.952-7.128 3.085-15.576 3.085-24.641 0-19.567-11.758-36.287-17.201-42.979-1.399-1.72-4.013-1.72-5.412 0-5.443 6.692-17.201 23.412-17.201 42.979 0 9.065 1.133 17.514 3.085 24.641 5.105-2.404 10.806-3.749 16.822-3.749zm-39.382 42.836c-7.151 1.873-15.037 5.116-22.89 9.651-16.946 9.783-25.547 28.326-28.62 36.386-.79 2.072.517 4.336 2.706 4.687 8.517 1.368 28.876 3.191 45.821-6.593 7.853-4.534 14.604-9.741 19.802-14.997-9.398-6.547-15.817-17.072-16.819-29.134zm101.654 9.65c-7.854-4.534-15.739-7.778-22.89-9.651-1.002 12.063-7.421 22.587-16.818 29.134 5.197 5.256 11.949 10.463 19.802 14.997 16.945 9.783 37.304 7.961 45.821 6.593 2.189-.352 3.496-2.616 2.706-4.687-3.074-8.06-11.675-26.602-28.621-36.386zm-62.272 26.554c-6.016 0-11.718-1.345-16.822-3.749-1.952 7.128-3.085 15.576-3.085 24.641 0 19.567 11.758 36.287 17.201 42.979 1.399 1.72 4.013 1.72 5.412 0 5.443-6.692 17.201-23.412 17.201-42.979 0-9.065-1.133-17.514-3.085-24.641-5.104 2.404-10.806 3.749-16.822 3.749z" fill="#f9efaf"/><path d="m204.377 60.558c-4.977-14.555-3.538-29.588-2.413-36.585.35-2.175 2.605-3.477 4.663-2.692 6.623 2.525 20.367 8.797 30.484 20.389-.639 3.251-1.018 6.627-1.018 10.098 0 9.066 1.133 17.514 3.085 24.641-2.013.948-3.933 2.061-5.742 3.322-5.197-5.256-11.948-10.463-19.802-14.997-3.006-1.735-6.12-3.103-9.257-4.176zm68.445 15.852c2.013.948 3.933 2.061 5.742 3.322 5.197-5.256 11.948-10.463 19.802-14.997 3.007-1.736 6.121-3.104 9.258-4.177 4.977-14.555 3.538-29.588 2.413-36.585-.35-2.175-2.605-3.477-4.663-2.692-6.623 2.525-20.367 8.797-30.484 20.389.639 3.251 1.019 6.627 1.019 10.098-.002 9.066-1.135 17.515-3.087 24.642zm-56.342 35.771c0-1.117.047-2.222.138-3.316-7.151-1.873-15.036-5.116-22.89-9.651-3.004-1.734-5.743-3.745-8.238-5.922-15.093 2.966-27.394 11.724-32.894 16.196-1.71 1.39-1.71 3.996 0 5.386 5.5 4.472 17.801 13.23 32.894 16.195 2.495-2.177 5.234-4.188 8.238-5.922 7.854-4.534 15.74-7.778 22.89-9.651-.091-1.092-.138-2.198-.138-3.315zm110.03-18.888c-2.495 2.177-5.235 4.188-8.238 5.922-7.854 4.534-15.74 7.778-22.89 9.651.091 1.093.138 2.199.138 3.316s-.047 2.222-.138 3.316c7.15 1.873 15.036 5.116 22.89 9.651 3.004 1.734 5.743 3.745 8.238 5.922 15.093-2.966 27.394-11.724 32.894-16.195 1.71-1.39 1.71-3.996 0-5.386-5.499-4.473-17.801-13.231-32.894-16.197zm-28.145 66.334c-7.853-4.534-14.605-9.741-19.802-14.997-1.809 1.26-3.729 2.374-5.742 3.322 1.952 7.127 3.085 15.576 3.085 24.641 0 3.471-.38 6.847-1.019 10.098 10.117 11.592 23.86 17.865 30.484 20.389 2.059.785 4.313-.517 4.663-2.692 1.125-6.997 2.564-22.03-2.413-36.585-3.135-1.072-6.249-2.44-9.256-4.176zm-59.187-11.675c-2.013-.948-3.933-2.061-5.742-3.322-5.197 5.256-11.948 10.463-19.802 14.997-3.007 1.736-6.121 3.104-9.258 4.177-4.977 14.555-3.538 29.588-2.413 36.585.35 2.175 2.605 3.477 4.663 2.692 6.623-2.525 20.367-8.797 30.484-20.389-.639-3.251-1.018-6.627-1.018-10.098.001-9.066 1.134-17.515 3.086-24.642z" fill="#f6e781"/><path d="m258.706 215.572c-1.399 1.72-4.013 1.72-5.412 0-2.561-3.149-6.521-8.519-9.995-15.36v105.143h25.403v-105.143c-3.475 6.842-7.435 12.211-9.996 15.36z" fill="#a7e7d0"/><path d="m300.645 305.355h-89.291c-4.2 0-6.87 4.493-4.863 8.182l6.737 12.38c5.165 9.491 6.359 20.642 3.32 31.012l-.871 2.974c-9.046 30.872-13.638 62.876-13.638 95.046v39.633c0 5.478 4.441 9.918 9.918 9.918h88.084c5.478 0 9.918-4.441 9.918-9.918v-39.633c0-32.169-4.592-64.174-13.638-95.046l-.871-2.974c-3.038-10.369-1.844-21.52 3.32-31.012l6.737-12.38c2.009-3.689-.662-8.182-4.862-8.182z" fill="#cbe2ff"/><path d="m296.323 359.903-.871-2.974c-3.038-10.37-1.844-21.52 3.32-31.012l6.737-12.38c2.007-3.689-.663-8.182-4.863-8.182h-41.568l-.306.562c-5.165 9.491-6.359 20.642-3.32 31.012l.871 2.974c9.045 30.872 13.638 62.876 13.638 95.046v11.592c0 20.964-16.995 37.959-37.959 37.959h-29.962v10.082c0 5.478 4.441 9.918 9.918 9.918h88.084c5.478 0 9.918-4.441 9.918-9.918v-39.633c.001-32.17-4.592-64.174-13.637-95.046z" fill="#9dc6fb"/><path d="m234.739 112.181c0 11.724 9.537 21.261 21.261 21.261s21.262-9.538 21.262-21.261-9.538-21.261-21.262-21.261-21.261 9.538-21.261 21.261zm27.523 0c0 3.453-2.809 6.261-6.262 6.261-3.452 0-6.261-2.809-6.261-6.261s2.809-6.261 6.261-6.261c3.453 0 6.262 2.809 6.262 6.261z"/><path d="m234.54 454.949c0-29.09 4.147-57.993 12.326-85.907 1.165-3.975-1.113-8.142-5.088-9.306-3.976-1.167-8.143 1.113-9.307 5.088-8.581 29.284-12.932 59.606-12.932 90.125 0 4.142 3.357 7.5 7.5 7.5s7.501-3.358 7.501-7.5z"/><path d="m147.864 120.693c4.734 3.849 13.16 9.878 23.844 14.087-7.37 9.287-11.658 18.966-13.609 24.08-2.487 6.521 1.645 13.66 8.524 14.765 5.403.867 15.926 1.993 27.65.256-1.696 11.359-.683 21.672.285 27.697 1.104 6.869 8.24 10.988 14.739 8.51 5.703-2.174 15.14-6.454 24.129-13.602.743 1.88 1.541 3.688 2.371 5.415v36.41c-3.328-3.486-7.394-6.783-12.361-9.65-19.648-11.345-38.121-7.081-47.384-3.529-6.595 2.528-10.578 9.426-9.471 16.403 1.557 9.797 7.102 27.928 26.749 39.271 13.37 7.719 28.129 9.254 42.467 5.17v11.878h-24.444c-9.9 0-16.173 10.588-11.45 19.267l6.736 12.38c4.246 7.802 5.208 16.793 2.711 25.318-9.631 32.878-14.812 64.558-14.812 100.128 0 4.142 3.357 7.5 7.5 7.5s7.5-3.358 7.5-7.5c0-34.109 4.968-64.375 14.206-95.911 3.621-12.359 2.226-25.394-3.93-36.705l-5.157-9.478h82.682l-5.157 9.478c-6.155 11.311-7.551 24.346-3.93 36.706 9.234 31.486 14.207 61.819 14.207 95.91v39.633c0 1.333-1.085 2.418-2.419 2.418h-88.084c-1.333 0-2.418-1.085-2.418-2.418v-5.364c0-4.142-3.357-7.5-7.5-7.5s-7.5 3.358-7.5 7.5v5.364c0 9.604 7.813 17.418 17.418 17.418h88.084c9.604 0 17.419-7.814 17.419-17.418v-39.633c0-35.711-5.235-67.471-14.813-100.129-2.497-8.524-1.535-17.516 2.711-25.318l6.736-12.379c4.723-8.681-1.551-19.268-11.45-19.268h-24.444v-10.663c32.036 9.126 63.977-11.474 69.216-44.441 1.108-6.977-2.874-13.875-9.47-16.403-4.324-1.659-8.844-2.794-13.431-3.374-4.102-.514-7.862 2.39-8.381 6.501-.52 4.109 2.391 7.862 6.5 8.381 4.228.534 7.739 1.652 9.967 2.541-3.575 22.5-23.526 35.963-43.49 33.741l20.253-11.693c3.587-2.071 4.816-6.658 2.745-10.245s-6.66-4.816-10.245-2.745l-20.241 11.686c2.307-5.268 6.166-11.059 12.623-15.789 3.341-2.448 4.065-7.141 1.617-10.482-2.447-3.342-7.142-4.065-10.482-1.618-2.711 1.986-5.091 4.105-7.181 6.298v-37.644c.829-1.727 1.627-3.535 2.37-5.415 8.989 7.149 18.426 11.428 24.13 13.601 6.494 2.476 13.634-1.633 14.739-8.51.968-6.025 1.981-16.338.285-27.698 11.725 1.737 22.248.611 27.65-.256 6.879-1.105 11.012-8.242 8.524-14.765-1.951-5.114-6.239-14.793-13.608-24.08 10.684-4.209 19.109-10.239 23.844-14.087 5.407-4.396 5.395-12.638 0-17.024-4.734-3.849-13.159-9.878-23.844-14.087 7.369-9.287 11.658-18.966 13.608-24.08 2.482-6.507-1.633-13.657-8.524-14.765-5.402-.867-15.926-1.994-27.65-.256 1.696-11.359.683-21.672-.285-27.697-1.107-6.889-8.257-10.982-14.739-8.51-5.703 2.174-15.14 6.453-24.13 13.602-4.358-11.022-10.594-19.572-14.046-23.816-4.404-5.418-12.654-5.406-17.05-.002-3.453 4.245-9.69 12.795-14.047 23.818-8.989-7.148-18.426-11.428-24.129-13.602-6.494-2.476-13.634 1.633-14.739 8.51-.968 6.025-1.981 16.338-.285 27.698-11.724-1.737-22.248-.611-27.65.256-6.904 1.11-11.002 8.269-8.524 14.765 1.951 5.114 6.239 14.793 13.609 24.08-10.684 4.209-19.11 10.238-23.844 14.087-5.407 4.394-5.395 12.636 0 17.022zm26.248 38.766c5.039-10.97 12.822-21.729 23.366-27.816 4.409-2.546 8.923-4.706 13.348-6.4 2.148 7.419 6.079 14.088 11.296 19.511-3.684 2.991-7.819 5.827-12.238 8.378-2.502 1.445-5.106 2.598-7.741 3.511-.13.041-.258.084-.385.132-10.107 3.412-20.628 3.339-27.646 2.684zm94.295 13.134c0 12.096-5.352 24.193-12.407 34.144-7.018-9.899-12.407-22.006-12.407-34.144 0-5.091.386-10.08 1.132-14.759 7.374 1.822 15.166 1.824 22.55 0 .746 4.679 1.132 9.669 1.132 14.759zm19.493-63.197c.147 2.058.179 3.105 0 5.569-1.415 16.357-15.182 29.237-31.9 29.237-17.655 0-32.02-14.364-32.02-32.02s14.364-32.02 32.02-32.02c16.718-.001 30.484 12.877 31.9 29.234zm-79.172 84.663c-.567-6.179-.711-15.388 1.748-24.547 6.442-2.653 13.632-7.322 19.068-11.508-.91 6.827-1.354 15.378-.432 22.268-6.703 6.708-14.749 11.189-20.384 13.787zm-27.305 45.08c21.167-8.114 42.856 2.275 50.965 20.794l-20.253-11.693c-3.589-2.072-8.176-.842-10.245 2.745-2.071 3.587-.842 8.174 2.745 10.245l20.232 11.681c-19.899 2.206-39.953-11.161-43.444-33.772zm69.376 58.716c0-19.047 0-60.72 0-74.798 3.236 1.741 7.166 1.741 10.402 0v74.798zm52.473-103.796c-5.634-2.598-13.681-7.078-20.384-13.787.923-6.899.477-15.453-.432-22.268 5.462 4.207 12.647 8.864 19.068 11.508 2.459 9.159 2.315 18.368 1.748 24.547zm-1.157-40.927c-4.418-2.551-8.554-5.387-12.237-8.378 5.217-5.424 9.147-12.093 11.296-19.511 4.425 1.693 8.939 3.854 13.348 6.399 10.543 6.087 18.327 16.843 23.365 27.816-12.083 1.128-25.26-.257-35.772-6.326zm26.289-30.197c-5.5-4.237-13.121-8.127-19.492-10.754 6.38-2.63 13.996-6.52 19.492-10.754 9.16 2.449 17.066 7.174 22.135 10.754-5.069 3.579-12.975 8.305-22.135 10.754zm9.484-58.032c-5.038 10.971-12.821 21.728-23.365 27.816-4.409 2.546-8.924 4.706-13.348 6.399-2.148-7.419-6.079-14.088-11.296-19.511 3.684-2.991 7.819-5.826 12.237-8.378 2.501-1.444 5.104-2.597 7.738-3.51.128-.04.255-.083.381-.13 10.109-3.414 20.633-3.341 27.653-2.686zm-34.616-34.6c.567 6.179.71 15.388-1.748 24.547-6.429 2.648-13.619 7.311-19.069 11.509.912-6.836 1.353-15.382.432-22.268 6.704-6.709 14.751-11.19 20.385-13.788zm-47.272-12.678c7.019 9.9 12.407 22.006 12.407 34.144 0 5.091-.386 10.081-1.132 14.759-7.374-1.822-15.166-1.824-22.55 0-.746-4.679-1.132-9.668-1.132-14.759 0-12.14 5.385-24.24 12.407-34.144zm-47.272 12.678c5.635 2.598 13.682 7.079 20.385 13.787-.923 6.896-.477 15.45.432 22.268-5.463-4.208-12.647-8.864-19.069-11.508-2.459-9.159-2.315-18.368-1.748-24.547zm-6.966 37.285c.128.048.258.092.389.133 2.633.913 5.234 2.066 7.734 3.509 4.418 2.551 8.554 5.387 12.238 8.378-5.217 5.424-9.147 12.093-11.296 19.512-4.424-1.693-8.939-3.854-13.348-6.4-10.541-6.086-18.328-16.843-23.366-27.816 7.019-.655 17.54-.729 27.649 2.684zm-18.165 33.84c5.525 4.256 13.175 8.15 19.491 10.754-6.311 2.602-13.963 6.495-19.491 10.753-9.16-2.449-17.066-7.174-22.135-10.753 5.068-3.58 12.974-8.306 22.135-10.754z"/></g><g transform="matrix(0.05859466642141342 0 0 0.05859466642141342 335 160)" id="L1_277"><path d="m136.607 252.862-46.39-27.999-46.401 27.999-23.459-14.158c-1.27-10.24-2.16-20.52-2.68-30.82l26.14 15.78 46.4-28 46.39 28 46.39-28 46.39 27.99v.01h.01l46.39-28 46.4 27.99v.01h.01l26.14-15.78c-.52 10.3-1.41 20.58-2.68 30.82l-23.465 14.162-46.405-28.002-46.389 27.999-46.401-27.999z" fill="#ecb780"/><path d="m348.156 161.673-25.96 15.66h-.01l-46.4-28-46.39 28h-.01l-46.39-28-46.39 28-46.39-28-46.4 28-25.95-15.66c.54-9.24 1.38-18.47 2.53-27.67l23.42 14.13 46.401-27.998 46.389 27.998 46.395-27.995 46.395 27.995 46.401-27.999 6.449 3.899 39.95 24.1 23.42-14.13c1.151 9.2 1.991 18.43 2.54 27.67z" fill="#ecb780"/><path d="m352.264 268.217c-5.936-5.936-8.684-14.32-7.515-22.633.322-2.292.625-4.586.909-6.882l-23.466 14.163-46.405-28.002-46.389 27.999-46.401-27.999-46.39 27.999-46.39-27.999-46.401 27.998-23.456-14.156c.284 2.295.587 4.588.909 6.879 1.168 8.313-1.579 16.697-7.515 22.633-8.356 8.356-8.356 21.905 0 30.26 8.356 8.356 21.904 8.356 30.261 0l2.67-2.67c5.525-5.525 13.199-8.343 20.986-7.697 76.83 6.376 153.846 6.376 230.676 0 7.787-.646 15.461 2.172 20.986 7.697l2.67 2.67c8.356 8.356 21.904 8.356 30.26 0 8.357-8.355 8.357-21.903.001-30.26z" fill="#698ed5"/><g fill="#ecb780"><path d="m352.264 298.478c-.851.851-1.756 1.615-2.704 2.293l25.781 15.561h.01l46.39-28 46.4 28h.01l25.96-15.66c-.55-9.24-1.39-18.47-2.54-27.67l-23.42 14.13-39.95-24.1-6.449-3.899-46.401 27.999-18.024-10.876c2.634 7.518.947 16.213-5.063 22.222z"/><path d="m229.922 292.102c-21.852.737-43.709.958-65.565.665-.203 2.634-.382 5.268-.536 7.904l25.95 15.66z"/><path d="m318.254 294.788c-5.422-4.849-12.616-7.282-19.907-6.677-18.88 1.567-37.771 2.748-56.668 3.545l40.882 24.676z"/><path d="m282.561 391.861 46.39-27.999 46.401 27.999 46.389-27.999 39.95 24.1 6.455 3.902 6.455-3.902 17.01-10.26c1.27-10.24 2.16-20.52 2.68-30.82l-26.14 15.78h-.01v-.01l-46.4-27.99-46.39 28h-.01v-.01l-46.39-27.99-46.39 28-46.39-28-46.4 28-26.14-15.78c.52 10.3 1.41 20.58 2.68 30.82l23.459 14.158 46.401-27.999z"/></g><path d="m322.186 177.333-46.4-28-46.39 28h-.01l-46.39-28-46.39 28-46.39-28-46.4 28-25.952-15.661c-.902 15.392-.964 30.82-.187 46.217l26.139 15.774 46.4-28 46.39 28 46.39-28 46.39 27.99v.01h.01l46.39-28 46.4 27.99 26.154-15.777c.776-15.395.713-30.822-.188-46.212z" fill="#f1f1f4"/><path d="m352.264 74.521c-8.302-8.302-21.729-8.356-30.097-.161-.055.053-.109.107-.163.161l-2.67 2.67c-5.525 5.525-13.199 8.343-20.986 7.697-73.971-6.139-151.054-6.607-230.676.001-7.786.646-15.461-2.172-20.986-7.697l-2.671-2.671c-.066-.066-.132-.131-.198-.195-8.371-8.16-21.772-8.095-30.063.195-8.356 8.356-8.356 21.904 0 30.261 5.936 5.936 8.683 14.32 7.515 22.633-.308 2.194-.599 4.391-.872 6.589l23.42 14.13 46.4-27.998h.001l46.389 27.999 46.39-27.992.005-.003 46.385 27.989.01.006 46.38-27.986.021-.013 6.449 3.899 39.92 24.082.03.018 23.424-14.133c-.274-2.197-.564-4.393-.872-6.586-1.168-8.313 1.579-16.697 7.515-22.633 8.356-8.358 8.356-21.906 0-30.262z" fill="#f1f1f4"/><path d="m322.196 223.663h-.01v-.01l-15.976-9.637c-.176 1.563-1.14 9.276-1.462 11.568-.994 7.07.846 14.191 5.07 19.814l12.373 7.466 23.465-14.162c1.27-10.24 2.16-20.52 2.68-30.82z" fill="#e7a561"/><path d="m345.617 134.003-23.42 14.13-14.17-8.548c.045.696.088 1.392.13 2.088l-.004.002c.539 9.199.778 18.411.717 27.622l13.317 8.036h.01l25.96-15.66c-.55-9.24-1.391-18.47-2.54-27.67z" fill="#e7a561"/><path d="m322.186 177.333-13.317-8.036c-.041 6.195-1.68 36.03-2.659 44.719l15.976 9.637 26.154-15.777c.776-15.395.713-30.822-.188-46.212z" fill="#dfdde2"/><path d="m352.264 74.521c-8.302-8.302-21.729-8.356-30.097-.161-.055.053-.109.107-.163.161l-2.67 2.67c-1.108 1.108-2.303 2.107-3.567 2.991-.932 1.647-2.099 3.197-3.502 4.6-5.936 5.936-8.684 14.32-7.515 22.633.308 2.194.598 4.389.872 6.586l-.004.002c1.063 8.507 1.861 17.04 2.41 25.582l14.14 8.53.03.018 23.424-14.133c-.274-2.197-.564-4.393-.872-6.586-1.168-8.313 1.579-16.697 7.515-22.633 8.355-8.356 8.355-21.904-.001-30.26z" fill="#dfdde2"/><path d="m352.264 268.217c-5.936-5.936-8.684-14.32-7.515-22.633.322-2.292.625-4.586.909-6.882l-23.466 14.163-12.373-7.466c.742.988 1.558 1.931 2.445 2.818 8.356 8.356 8.356 21.905 0 30.261-8.356 8.356-21.904 8.356-30.26 0l-2.67-2.67c-5.525-5.525-13.2-8.343-20.986-7.697-76.83 6.376-153.846 6.376-230.676 0-6.225-.517-12.378 1.181-17.419 4.706-4.618 8.16-3.451 18.708 3.502 25.661 8.356 8.356 21.904 8.356 30.261 0l2.67-2.67c5.525-5.525 13.199-8.343 20.986-7.697 76.83 6.376 153.846 6.376 230.676 0 7.787-.646 15.461 2.172 20.986 7.697l2.67 2.67c8.356 8.356 21.904 8.356 30.26 0 8.356-8.356 8.356-21.904 0-30.261z" fill="#4073c8"/><path d="m421.752 259.133 6.449 3.899 39.95 24.1 23.424-14.133c-.274-2.197-.564-4.392-.872-6.586-1.168-8.313 1.579-16.697 7.515-22.633 8.356-8.356 8.356-21.904 0-30.26-8.356-8.356-21.904-8.356-30.261 0l-2.67 2.67c-5.525 5.525-13.199 8.343-20.986 7.697-32.205-2.673-64.443-4.225-96.686-4.656-.681 8.805-1.636 17.594-2.867 26.355-1.168 8.313 1.579 16.697 7.515 22.633 2.347 2.347 4.034 5.103 5.063 8.038l18.024 10.876z" fill="#698ed5"/><path d="m494.295 346.874-26.154 15.777-46.4-27.99-46.39 28h-.01l-.003-.011-46.387-27.989-46.39 28-46.39-28-46.4 28-26.139-15.774c-.777-15.397-.714-30.825.187-46.217l25.952 15.661 40.151-24.229c2.083-.07 4.166-.145 6.249-.225 1.836-.07 3.672-.144 5.508-.221l40.882 24.676 35.693-21.544c.368.329.728.669 1.079 1.02l2.67 2.67c2.054 2.053 4.421 3.602 6.948 4.646 6.707 2.772 14.538 1.988 20.609-2.354l25.781 15.561h.01l46.39-28 46.4 28 25.966-15.669c.901 15.39.964 30.817.188 46.212zm3.923 60.342c-5.936-5.936-8.684-14.32-7.515-22.633.322-2.29.624-4.582.908-6.876l-23.441 14.141-.025.015-46.375-27.984-.03-.018-46.37 27.987-.019.011-46.381-27.987-.02-.012-46.38 27.993-.01.006s-46.39-27.999-46.39-27.999l-46.4 27.998h-.001l-23.456-14.156c.284 2.295.587 4.588.909 6.88 1.168 8.313-1.579 16.697-7.515 22.633-8.356 8.356-8.356 21.905 0 30.261 8.344 8.344 21.892 8.368 30.261 0l2.67-2.67c5.525-5.525 13.199-8.343 20.986-7.697 76.767 6.371 153.781 6.381 230.676 0 7.787-.646 15.461 2.172 20.986 7.697l2.67 2.67c.071.071.142.141.213.21 8.372 8.146 21.762 8.076 30.048-.21 8.357-8.356 8.357-21.904.001-30.26z" fill="#f1f1f4"/><path d="m491.571 273.002-23.42 14.13-14.17-8.548c.045.696.088 1.392.13 2.088l-.004.002c.539 9.199.778 18.411.717 27.622l13.317 8.036h.01l25.96-15.66c-.55-9.24-1.39-18.47-2.54-27.67z" fill="#e7a561"/><path d="m468.151 362.662h-.01v-.01l-15.976-9.637c-.176 1.563-1.14 9.278-1.462 11.568-.993 7.066.844 14.182 5.062 19.804l5.926 3.575 6.455 3.902 6.455-3.902 17.01-10.26c1.27-10.24 2.16-20.52 2.68-30.82z" fill="#e7a561"/><path d="m454.295 326.874-.004.007c-.441 8.729-1.147 17.444-2.126 26.133l15.976 9.637 26.154-15.777c.776-15.395.713-30.822-.188-46.212l-25.966 15.669-13.317-8.036c-.041 6.196-.217 12.39-.529 18.579z" fill="#dfdde2"/><path d="m498.218 407.216c-5.936-5.936-8.684-14.32-7.515-22.633.322-2.29.624-4.582.908-6.876l-23.441 14.141-.025.015-12.373-7.466c.743.988 1.558 1.931 2.445 2.818 8.356 8.356 8.356 21.905 0 30.261-8.286 8.286-21.676 8.355-30.048.21-.071-.069-.142-.139-.213-.21l-2.67-2.67c-5.525-5.525-13.199-8.343-20.986-7.697-76.896 6.381-153.91 6.371-230.676 0-6.225-.517-12.378 1.181-17.419 4.706-4.618 8.16-3.451 18.708 3.502 25.661 8.344 8.344 21.892 8.368 30.261 0l2.67-2.67c5.525-5.525 13.199-8.343 20.986-7.697 76.767 6.371 153.781 6.381 230.676 0 7.787-.646 15.461 2.172 20.986 7.697l2.67 2.67c.071.071.142.141.213.21 8.372 8.146 21.762 8.076 30.048-.21 8.357-8.356 8.357-21.904.001-30.26z" fill="#dfdde2"/><path d="m498.218 213.519c-8.356-8.356-21.905-8.356-30.261 0l-2.67 2.67c-1.108 1.108-2.303 2.107-3.567 2.991-.932 1.647-2.099 3.196-3.502 4.599-5.936 5.936-8.684 14.32-7.515 22.633.308 2.193.868 6.589.868 6.589 1.063 8.507 1.861 17.04 2.41 25.582l14.17 8.548 23.424-14.133c-.274-2.197-.564-4.392-.872-6.586-1.168-8.313 1.579-16.697 7.515-22.633 8.356-8.355 8.356-21.903 0-30.26z" fill="#4073c8"/><path d="m498.13 385.628c5.522-39.224 5.685-79.909 0-120.259-.84-5.981 1.176-12.07 5.393-16.286 11.267-11.267 11.267-29.6 0-40.867-11.269-11.268-29.602-11.267-40.868 0l-2.669 2.669c-3.978 3.976-9.458 5.994-15.063 5.527-9.867-.819-19.892-1.544-29.796-2.154-4.129-.251-7.692 2.891-7.946 7.024-.255 4.134 2.89 7.692 7.024 7.947 9.798.604 19.715 1.321 29.478 2.131 10 .829 19.809-2.767 26.91-9.868l2.67-2.67c5.417-5.418 14.234-5.42 19.653 0 5.419 5.419 5.419 14.235.001 19.654-7.528 7.527-11.132 18.361-9.64 28.981.077.55.153 1.101.229 1.651l-15.354 9.263-42.52-25.658c-2.384-1.442-5.371-1.443-7.755-.003l-42.525 25.66-12.039-7.264c-1.384-2.968-3.299-5.748-5.745-8.194-4.217-4.217-6.232-10.304-5.392-16.285.94-6.679 1.707-13.309 2.313-19.788 16.601.307 23.866.678 24.938.678 4.017 0 7.344-3.182 7.49-7.229.15-4.139-3.084-7.617-7.224-7.767-7.978-.289-16.041-.512-24.063-.665 1.643-27.964.612-56.507-3.455-85.489-.841-5.98 1.175-12.068 5.393-16.285 11.293-11.293 11.296-29.574-.001-40.867-11.13-11.13-29.318-11.245-40.571-.291-.134.13.171-.173-2.965 2.96-3.977 3.976-9.457 5.986-15.063 5.526-74.319-6.169-152.412-6.597-231.917 0-5.594.465-11.086-1.549-15.063-5.526-1.178-1.177-2.831-2.828-2.936-2.933-11.343-11.029-29.531-10.805-40.602.267-11.267 11.267-11.267 29.6 0 40.867 4.216 4.216 6.231 10.305 5.392 16.285-5.575 39.656-5.633 80.206 0 120.258.84 5.981-1.175 12.069-5.392 16.286-11.267 11.267-11.267 29.6 0 40.867 11.266 11.266 29.598 11.269 40.867 0l2.671-2.67c3.977-3.976 9.469-5.989 15.063-5.526 13.79 1.145 27.776 2.097 41.568 2.83 4.139.232 7.667-2.955 7.888-7.091s-2.955-7.668-7.091-7.888c-13.645-.726-27.481-1.668-41.124-2.8-10.005-.83-19.809 2.767-26.909 9.867l-2.671 2.67c-5.419 5.419-14.235 5.419-19.654 0-5.431-5.432-5.431-14.222 0-19.654 5.62-5.62 9.052-13.081 9.81-20.921l11.074 6.683c2.384 1.438 5.367 1.438 7.75 0l42.525-25.66 42.515 25.661c2.384 1.438 5.367 1.438 7.751 0l42.515-25.661 42.525 25.66c2.384 1.438 5.368 1.438 7.75 0l42.514-25.66 42.529 25.664c2.378 1.436 5.362 1.441 7.75 0l11.084-6.689c.758 7.84 4.19 15.303 9.81 20.923 6.011 6.011 5.27 16.031-1.672 21.084-2.496 1.727-5.083 2.641-8.155 2.641-1.792 0-3.532-.337-5.148-.981-3.389-1.503-4.08-2.492-7.349-5.76-7.097-7.097-16.9-10.7-26.909-9.868-50.875 4.222-102.5 5.641-153.449 4.215-4.144-.105-7.591 3.147-7.707 7.287-.116 4.141 3.147 7.591 7.287 7.707 13.445.376 12.484.204 12.474.387-1.672 28.546-.505 57.142 3.464 85.395.841 5.981-1.174 12.069-5.391 16.285-11.293 11.293-11.295 29.573 0 40.867 11.114 11.115 29.328 11.252 40.589.274.119-.119 2.041-2.038 2.948-2.944 3.977-3.976 9.463-5.994 15.063-5.526 76.029 6.31 154.056 6.461 231.917 0 9.166-.755 14.459 4.811 16.717 7.19.439.463.84.885 1.292 1.278 10.584 10.584 29.1 11.22 40.591-.272 11.294-11.291 11.297-29.572 0-40.868-4.217-4.214-6.232-10.302-5.392-16.282zm-29.984-2.528c-53.588-32.331-40.56-24.55-42.696-25.757-.035-.02-.069-.039-.104-.058-2.335-1.28-5.186-1.229-7.479.156l-42.515 25.66-42.445-25.612c-2.419-1.504-5.492-1.502-7.906-.003l-42.44 25.614-42.432-25.61c-2.397-1.492-5.47-1.518-7.907-.006l-42.451 25.616-16.448-9.926c-.473-4.117-.887-8.267-1.239-12.429l13.742 8.296c2.407 1.492 5.473 1.499 7.893-.003l42.451-25.617 42.44 25.615c2.381 1.479 5.455 1.519 7.902 0l42.44-25.616 42.272 25.506c2.452 1.614 5.569 1.624 8.003.155l42.515-25.661c45.553 27.478 42.613 25.713 42.73 25.779 2.364 1.328 5.25 1.273 7.555-.118l13.811-8.337c-.352 4.16-.766 8.309-1.239 12.427zm-224.475-5.952 31.4 18.951v27.231c-10.478-.406-20.947-.93-31.4-1.572zm46.4 18.94 31.38-18.94v47.203c-10.463-.056-20.925-.23-31.38-.522zm46.38-18.942 31.42 18.959v27.723c-10.469.292-20.944.467-31.42.523zm46.42 18.936 31.399-18.951v44.627c-10.453.642-20.922 1.167-31.399 1.572zm-65.725-91.865c1.339 1.284 2.78 2.424 4.305 3.413v22.798l-31.39 18.946v-28.809zm-42.085 45.158-31.391-18.946v-28.81l31.391 18.947zm-46.39-18.947-31.4 18.948v-28.811l31.4-18.948zm-46.4 18.945-11.329-6.839c-.391-9.604-.45-19.278-.177-28.913l11.507 6.944v28.808zm278.369-28.807v28.803l-31.399-18.941v-28.809zm26.523-6.944c.273 9.633.214 19.306-.178 28.909l-11.344 6.849v-28.807zm-72.922 16.806-31.4 18.953v-28.809l31.4-18.953zm-35.015-36.875 42.521-25.658 42.529 25.659c2.383 1.438 5.365 1.438 7.748 0l13.381-8.073c.355 3.691.665 7.405.926 11.125l-18.186 10.97-42.45-25.617c-2.4-1.493-5.475-1.512-7.906-.003l-42.445 25.619-13.998-8.449c1.884-2.89 3.198-6.045 3.942-9.306l6.187 3.733c2.384 1.438 5.368 1.438 7.751 0zm-281.51-102.123v-28.81l31.39 18.946v28.81zm-72.729 12.106c-.392-9.604-.451-19.279-.178-28.913l11.507 6.944v28.808zm111.62-102.842c4.142 0 7.5-3.358 7.5-7.5v-5.026c10.459-.292 20.924-.466 31.39-.523v28.262l-31.39 18.941v-6.655c0-4.142-3.358-7.5-7.5-7.5s-7.5 3.358-7.5 7.5v6.653l-31.39-18.945v-25.662c10.45-.642 20.916-1.166 31.39-1.572v4.527c0 4.142 3.357 7.5 7.5 7.5zm131.67 15.219-31.391 18.941v-46.189c10.475.405 20.94.929 31.391 1.571zm-46.391 18.929-31.39-18.94v-28.257c10.466.056 20.931.23 31.39.522zm-131.669-5.947c26.054 15.725 16.452 9.93 42.455 25.624 2.366 1.461 5.419 1.508 7.86.006l42.47-25.627c45.739 27.599 43.266 26.376 45.384 26.667 1.694.232 3.421-.125 4.886-1.01l42.522-25.658c36.275 21.885 26.485 15.979 42.415 25.59.112.07.235.142.382.223 2.334 1.28 5.184 1.23 7.48-.154l13.379-8.072c.356 3.689.665 7.402.927 11.124l-18.186 10.97-42.45-25.617c-2.415-1.501-5.489-1.503-7.906-.003l-42.445 25.618-42.436-25.614c-2.434-1.515-5.513-1.497-7.917 0l-42.432 25.611-42.432-25.611c-2.447-1.524-5.522-1.486-7.907-.006l-42.451 25.617-18.175-10.968c.257-3.711.565-7.425.921-11.122l13.339 8.048c2.377 1.458 5.422 1.482 7.84-.006 19.187-11.577 22.851-13.788 42.477-25.63zm-38.9 52.672 31.4-18.948v28.81l-31.4 18.948zm92.79-.001 31.39-18.946v28.81l-31.39 18.946zm46.39-18.946 31.39 18.946v28.802l-31.39-18.939zm46.389 18.953 31.4-18.952v28.81l-31.4 18.953zm46.401-18.954 31.399 18.948v28.803l-31.399-18.941zm46.399 18.955 11.522-6.951c.273 9.632.214 19.305-.178 28.909l-11.344 6.849zm17.276-101.75c5.431 5.433 5.432 14.221-.002 19.654-7.527 7.528-11.131 18.362-9.639 28.978.078.552.154 1.103.229 1.654-2.875 1.735-6.051 3.651-7.884 4.757v-56.935c5.374-3.416 12.626-2.776 17.296 1.892zm-32.295 9.593v45.412l-31.39-18.942v-24.647c4.821.349 9.638.723 14.45 1.122 5.885.489 11.701-.556 16.94-2.945zm-246.376 2.945c4.804-.399 9.613-.772 14.425-1.12v24.659c-2.533 1.529-25.839 15.591-31.4 18.947v-45.445c5.248 2.401 11.077 3.451 16.975 2.959zm-49.234-12.538c4.653-4.652 11.884-5.302 17.26-1.912v56.936l-7.85-4.736c.075-.552.152-1.103.229-1.655 1.492-10.619-2.112-21.453-9.639-28.979-5.419-5.418-5.419-14.235 0-19.654zm303.134 164.282-42.529-25.664c-2.383-1.438-5.366-1.438-7.751 0l-42.514 25.66-42.525-25.66c-2.384-1.438-5.368-1.438-7.75 0l-42.515 25.66-42.515-25.66c-2.384-1.438-5.367-1.439-7.75 0l-42.525 25.66-16.448-9.926c-.473-4.118-.887-8.268-1.239-12.429l13.742 8.296c2.37 1.469 5.441 1.519 7.893-.003l42.451-25.617 42.432 25.611c2.425 1.51 5.507 1.501 7.917 0l42.432-25.611 42.269 25.503c2.432 1.604 5.552 1.639 8.006.158l42.516-25.661 42.283 25.506c2.41 1.586 5.526 1.649 8.002.155l13.811-8.337c-.352 4.16-.766 8.31-1.239 12.429zm27.297 65.382 18.353 11.077v28.802l-31.39-18.94v-18.19c4.695.109 9.125-.897 13.037-2.749zm-47.104-13.881-19.823 11.965-16.032-9.677c31.383-1.869 32.105-2.65 35.855-2.288zm-100.492 4.65-12.122 7.315-11.919-7.193c8.007.028 16.023-.013 24.041-.122zm-36.881 131.916c-5.43-5.43-5.433-14.222 0-19.654 5.62-5.62 9.052-13.081 9.81-20.921l7.449 4.496v37.993c-5.368 3.389-12.603 2.742-17.259-1.914zm32.26-9.577v-26.503l31.4-18.947v43.609c-4.813-.348-9.621-.722-14.426-1.12-5.898-.488-11.727.562-16.974 2.961zm246.41-2.961c-4.8.398-9.604.771-14.411 1.119v-43.59l31.4 18.948v26.527c-5.28-2.497-10.959-3.506-16.989-3.004zm49.234 12.538c-4.648 4.648-11.876 5.301-17.244 1.923v-38.013l7.434-4.487c.758 7.841 4.19 15.304 9.81 20.923 5.433 5.433 5.432 14.222 0 19.654z"/></g><g transform="matrix(0.13671875 0 0 0.13671875 140 140)" id="L1_278"><path d="m504.5 439.755c0 12.899-10.457 23.356-23.356 23.356h-450.288c-12.899 0-23.356-10.457-23.356-23.356v-311.906c0-12.899 10.457-23.356 23.356-23.356h450.288c12.899 0 23.356 10.457 23.356 23.356z" fill="#ecb780"/><path d="m481.144 104.493h-16.884c.158 1.096.24 2.216.24 3.356v311.905c0 12.899-10.457 23.356-23.356 23.356h-433.404c1.627 11.309 11.357 20 23.116 20h450.288c12.899 0 23.356-10.457 23.356-23.356v-311.905c0-12.899-10.457-23.356-23.356-23.356z" fill="#e7a561"/><path d="m47.815 426.871c-2.251 0-4.076-1.825-4.076-4.076v-277.987c0-2.251 1.825-4.076 4.076-4.076h416.37c2.251 0 4.076 1.825 4.076 4.076v277.987c0 2.251-1.825 4.076-4.076 4.076z" fill="#cbe2ff"/><path d="m464.185 140.733h-35.925v224.573c0 22.956-18.61 41.566-41.566 41.566h-342.955v15.924c0 2.251 1.825 4.076 4.076 4.076h416.37c2.251 0 4.076-1.825 4.076-4.076v-277.988c0-2.251-1.825-4.075-4.076-4.075z" fill="#9dc6fb"/><circle cx="256" cy="227" r="27" fill="#f9efaf"/><path d="m154.3 301.182-110.56 110.56v-175.48c19.91.55 35.87 16.85 35.87 36.88v1.64h6.1c25.41 0 49.84 9.45 68.59 26.4z" fill="#ffffff"/><circle cx="256" cy="62" r="14" fill="#c6c1c8"/><path d="m302.513 426.871 17.72-17.72c12.413-12.413 29.248-19.386 46.802-19.386h12.829v-.923c0-26.28 21.304-47.584 47.584-47.584h8.614c0-17.782 14.416-32.198 32.198-32.198v113.736c0 2.251-1.825 4.076-4.076 4.076.001-.001-161.671-.001-161.671-.001z" fill="#ffffff"/><path d="m436.063 341.257h-7.802v24.048c0 22.956-18.61 41.566-41.566 41.566h-64.065c-.816.738-1.615 1.498-2.397 2.28l-17.72 17.72h161.672c1.899 0 3.495-1.299 3.947-3.057.008-.033.016-.065.024-.098.015-.066.029-.132.041-.199.03-.167.05-.338.058-.512.003-.069.005-.139.005-.21v-113.736c-17.782 0-32.197 14.416-32.197 32.198z" fill="#ddeafb"/><path d="m439.492 262.2c-20.651 0-38.665 11.286-48.212 28.027-2.852-1.059-5.937-1.637-9.158-1.637-10.019 0-18.73 5.598-23.177 13.836l45.021 45.021c-.006.003-.011.006-.017.01 6.933-3.945 14.953-6.199 23.5-6.199h8.614c0-17.782 14.416-32.198 32.198-32.198v-38.823c-8.388-5.1-18.235-8.037-28.769-8.037z" fill="#ddeafb"/><path d="m428.26 263.338v77.92h7.802c0-17.782 14.416-32.198 32.198-32.198v-38.823c-8.388-5.1-18.235-8.037-28.769-8.037-3.847 0-7.603.392-11.231 1.138z" fill="#cbe2ff"/><path d="m166.954 340.021 16.675-16.675c.836-.836 2.193-.836 3.029 0l16.763 16.763c.837.836 2.193.836 3.029 0l17.668-17.669c-16.472-16.472-30.619-30.619-38.601-38.601-3.835-3.835-10.048-3.829-13.883.006l-31.943 31.943 24.233 24.233c.837.837 2.194.837 3.03 0z" fill="#f1f1f4"/><path d="m224.12 322.442-17.668 17.669c-.837.836-2.193.836-3.029 0l-16.763-16.763c-.837-.836-2.193-.836-3.029 0l-16.675 16.675c-.837.836-2.193.836-3.029 0l-24.233-24.233-95.953 95.953v11.053c0 2.251 1.825 4.076 4.076 4.076h135.636s36.313-36.313 72.549-72.549z" fill="#66b49d"/><path d="m47.815 426.871h135.636s7.897-7.897 20-20h-154.841l-4.871 4.871v11.053c0 .387.054.761.155 1.116.018.064.038.128.06.191.011.032.022.063.033.094.049.135.106.267.169.395.019.039.039.078.059.116.067.126.141.249.22.366.018.027.037.054.056.081.076.107.157.209.242.308l.069.078c.746.818 1.82 1.331 3.013 1.331z" fill="#57988b"/><path d="m367.036 389.765h12.829v-.923c0-17.74 9.708-33.212 24.101-41.395l-29.65-29.65-17.787 17.787c-.837.837-2.193.837-3.029 0l-16.763-16.763c-.837-.837-2.193-.837-3.029 0l-16.675 16.675c-.837.836-2.193.836-3.029 0l-19.588-19.588-110.965 110.963h119.063l17.72-17.72c12.412-12.413 29.247-19.386 46.802-19.386z" fill="#78d0b1"/><path d="m302.513 426.871 17.72-17.72c.782-.782 1.581-1.542 2.397-2.28h-119.18l-20 20z" fill="#66b49d"/><path d="m317.032 335.495 16.675-16.675c.836-.837 2.193-.837 3.029 0l16.763 16.763c.837.837 2.193.837 3.029 0l17.787-17.787-33.951-33.951c-3.835-3.835-10.053-3.835-13.889 0l-32.061 32.061 19.588 19.588c.837.837 2.193.837 3.03.001z" fill="#ffffff"/><path d="m464.185 426.871s-84.628 0-131.427 0h131.427c2.251 0 4.076-1.825 4.076-4.075 0 2.25-1.825 4.075-4.076 4.075z" fill="#ecb780"/><path d="m30.855 470.61h450.289c17.014 0 30.855-13.842 30.855-30.855v-311.906c0-17.014-13.842-30.856-30.855-30.856h-182.374l-22.336-27.328c4.611-13.915-5.823-28.275-20.434-28.275-14.603 0-25.048 14.35-20.433 28.275l-22.337 27.328h-182.375c-17.013 0-30.855 13.842-30.855 30.856v311.906c0 17.014 13.842 30.855 30.855 30.855zm225.145-414.22c3.595 0 6.52 2.925 6.52 6.52s-2.925 6.52-6.52 6.52-6.52-2.925-6.52-6.52c0-3.596 2.925-6.52 6.52-6.52zm-10.765 25.148c6.645 3.855 14.877 3.86 21.531 0l12.632 15.456h-46.795zm-230.235 46.311c0-8.743 7.112-15.856 15.855-15.856h450.289c8.743 0 15.855 7.113 15.855 15.856v311.906c0 8.743-7.112 15.855-15.855 15.855h-450.289c-8.743 0-15.855-7.113-15.855-15.855z"/><path d="m221.442 227.488c0 19.055 15.503 34.558 34.558 34.558s34.558-15.503 34.558-34.558-15.503-34.558-34.558-34.558-34.558 15.503-34.558 34.558zm34.558-19.558c10.784 0 19.558 8.774 19.558 19.558s-8.773 19.558-19.558 19.558-19.558-8.774-19.558-19.558 8.774-19.558 19.558-19.558z"/><path d="m263.5 175.43v-6.799c0-4.142-3.357-7.5-7.5-7.5s-7.5 3.358-7.5 7.5v6.799c0 4.142 3.357 7.5 7.5 7.5s7.5-3.358 7.5-7.5z"/><path d="m248.5 279.546v6.799c0 4.142 3.357 7.5 7.5 7.5s7.5-3.358 7.5-7.5v-6.799c0-4.142-3.357-7.5-7.5-7.5s-7.5 3.358-7.5 7.5z"/><path d="m292.314 180.567-4.808 4.808c-2.929 2.929-2.929 7.678 0 10.606 2.93 2.929 7.678 2.929 10.607 0l4.808-4.808c2.929-2.929 2.929-7.678 0-10.606-2.929-2.929-7.677-2.929-10.607 0z"/><path d="m213.887 258.995-4.808 4.807c-2.93 2.929-2.93 7.678-.001 10.607 2.929 2.928 7.677 2.93 10.606 0l4.808-4.807c2.93-2.929 2.93-7.678.001-10.607-2.929-2.927-7.678-2.929-10.606 0z"/><path d="m314.856 234.988c4.143 0 7.5-3.358 7.5-7.5s-3.357-7.5-7.5-7.5h-6.799c-4.143 0-7.5 3.358-7.5 7.5s3.357 7.5 7.5 7.5z"/><path d="m197.144 219.988c-4.143 0-7.5 3.358-7.5 7.5s3.357 7.5 7.5 7.5h6.799c4.143 0 7.5-3.358 7.5-7.5s-3.357-7.5-7.5-7.5z"/><path d="m287.507 258.996c-2.929 2.929-2.929 7.678.001 10.607l4.808 4.807c2.928 2.929 7.677 2.928 10.606 0 2.929-2.929 2.929-7.678-.001-10.607l-4.808-4.807c-2.927-2.93-7.676-2.929-10.606 0z"/><path d="m219.686 180.567c-2.93-2.929-7.678-2.929-10.607 0s-2.929 7.678 0 10.606l4.808 4.808c2.93 2.929 7.678 2.929 10.607 0s2.929-7.678 0-10.606z"/><path d="m28.952 441.658c2.93 2.929 7.678 2.929 10.607 0l7.324-7.324c.896.072 417.692.043 418.232 0l7.324 7.324c2.93 2.929 7.678 2.929 10.607 0s2.929-7.678 0-10.606l-7.325-7.325c.049-.606.071-278.96 0-279.849l7.325-7.325c2.929-2.929 2.929-7.678-.001-10.606-2.928-2.93-7.677-2.929-10.606 0l-7.324 7.325c-.729-.059 15.547-.038-347.616-.038-4.143 0-7.5 3.358-7.5 7.5s3.357 7.5 7.5 7.5h343.261v110.158c-26.86-9.629-56.677.082-72.872 23.188-10.65-1.832-21.798 1.493-29.729 9.456l-12.492-12.492c-6.768-6.769-17.724-6.771-24.496 0-7.787 7.787-57.132 57.132-65.172 65.172-34.375-34.374-30.947-30.947-65.179-65.178-6.729-6.729-17.684-6.799-24.489.006l-12.456 12.456c-19.089-15.131-42.639-23.486-67.139-23.713-2.46-19.028-16.768-34.15-35.496-37.732v-81.322h31.26c4.143 0 7.5-3.358 7.5-7.5s-3.357-7.5-7.5-7.5c-37.333 0-34.932-.017-35.616.038l-7.324-7.325c-2.929-2.929-7.678-2.929-10.606 0-2.93 2.929-2.93 7.677-.001 10.606l7.325 7.325c-.054.674-.067 279.016 0 279.849l-7.325 7.325c-2.93 2.929-2.93 7.678-.001 10.607zm265.463-115.144 14.285 14.285c3.768 3.766 9.867 3.767 13.634-.001l12.888-12.886 12.976 12.977c3.758 3.757 9.873 3.756 13.635-.001l12.483-12.483 18.024 18.024c-10.603 8.792-17.868 21.474-19.584 35.837-8.292 0-15.963-.23-27.229 3.209-3.962 1.209-6.193 5.401-4.983 9.363 1.213 3.976 5.414 6.189 9.362 4.984 5.557-1.696 11.32-2.556 17.131-2.556h12.829c4.143 0 7.5-3.358 7.5-7.5v-.923c0-22.103 17.981-40.084 40.084-40.084h8.614c4.143 0 7.5-3.358 7.5-7.5 0-11.147 7.347-20.418 17.198-23.544v101.658h-140.142c4.631-4.631 6.373-6.49 9.308-8.887 3.209-2.619 3.688-7.343 1.068-10.553-2.619-3.208-7.344-3.688-10.553-1.068-3.968 3.239-4.922 4.391-21.038 20.508h-97.849zm94.254-29.256c3.443 1.278 7.307-.125 9.125-3.316 12.619-22.126 40.316-30.493 62.967-19.279v27.601c-15.894 3.022-28.474 15.601-31.495 31.494h-1.817c-7.811 0-15.247 1.635-21.985 4.579-28.989-28.989-29.061-29.06-36.694-36.693 5.349-5.386 13.208-6.871 19.899-4.386zm-56.891-8.108c.905-.905 2.371-.912 3.283 0 8.869 8.868 21.267 21.266 28.647 28.647l-8.695 8.695-12.976-12.976c-3.768-3.766-9.868-3.767-13.634.001l-12.888 12.886-10.495-10.496zm-154.839-.001c.897-.897 2.354-.928 3.275-.005l33.298 33.298-8.576 8.577-12.974-12.973c-3.767-3.769-9.864-3.772-13.638-.001l-12.886 12.886-15.141-15.141c33.061-33.06 4.56-4.559 26.642-26.641zm-104.829-16.006v1.64c0 4.142 3.357 7.5 7.5 7.5h6.1c20.886 0 41.013 6.842 57.476 19.406-7.928 7.928-30.207 30.207-37.477 37.477-2.929 2.929-2.929 7.678 0 10.606 2.93 2.929 7.678 2.929 10.607 0l23.376-23.376 18.931 18.93c3.768 3.766 9.866 3.767 13.635-.001l12.886-12.886 12.974 12.973c3.767 3.769 9.864 3.772 13.638.001l12.364-12.365 21.274 21.274-65.049 65.049h-129.106v-4.522l40.173-40.172c2.929-2.929 2.929-7.678 0-10.606-2.93-2.929-7.678-2.93-10.607 0l-29.565 29.565v-148.652c12.165 3.623 20.87 14.807 20.87 28.159z"/></g><path d="M165,0C74.019,0,0,74.019,0,165s74.019,165,165,165c90.982,0,165-74.019,165-165S255.982,0,165,0z" transform="matrix(0.03030303120613098 0 0 0.03030303120613098 257.5 257.5)" id="L1_279" fill="#172195"/></defs><g fi:class="KUsePattern"><pattern id="pattern_L1_275" width="350" height="350" patternUnits="userSpaceOnUse"><use xlink:href="#L1_275" x="-350" y="-350"/><use xlink:href="#L1_275" x="0" y="-350"/><use xlink:href="#L1_275" x="350" y="-350"/><use xlink:href="#L1_275" x="-350" y="0"/><use xlink:href="#L1_275" x="0" y="0"/><use xlink:href="#L1_275" x="350" y="0"/><use xlink:href="#L1_275" x="-350" y="350"/><use xlink:href="#L1_275" x="0" y="350"/><use xlink:href="#L1_275" x="350" y="350"/></pattern><rect x="0" y="0" width="100%" height="100%" fill="url(#pattern_L1_275)"/></g><g fi:class="KUsePattern"><pattern id="pattern_L1_276" width="350" height="350" patternUnits="userSpaceOnUse"><use xlink:href="#L1_276" x="-350" y="-350"/><use xlink:href="#L1_276" x="0" y="-350"/><use xlink:href="#L1_276" x="350" y="-350"/><use xlink:href="#L1_276" x="-350" y="0"/><use xlink:href="#L1_276" x="0" y="0"/><use xlink:href="#L1_276" x="350" y="0"/><use xlink:href="#L1_276" x="-350" y="350"/><use xlink:href="#L1_276" x="0" y="350"/><use xlink:href="#L1_276" x="350" y="350"/></pattern><rect x="0" y="0" width="100%" height="100%" fill="url(#pattern_L1_276)"/></g><g fi:class="KUsePattern"><pattern id="pattern_L1_277" width="350" height="350" patternUnits="userSpaceOnUse"><use xlink:href="#L1_277" x="-350" y="-350"/><use xlink:href="#L1_277" x="0" y="-350"/><use xlink:href="#L1_277" x="350" y="-350"/><use xlink:href="#L1_277" x="-350" y="0"/><use xlink:href="#L1_277" x="0" y="0"/><use xlink:href="#L1_277" x="350" y="0"/><use xlink:href="#L1_277" x="-350" y="350"/><use xlink:href="#L1_277" x="0" y="350"/><use xlink:href="#L1_277" x="350" y="350"/></pattern><rect x="0" y="0" width="100%" height="100%" fill="url(#pattern_L1_277)"/></g><g fi:class="KUsePattern"><pattern id="pattern_L1_278" width="350" height="350" patternUnits="userSpaceOnUse"><use xlink:href="#L1_278" x="-350" y="-350"/><use xlink:href="#L1_278" x="0" y="-350"/><use xlink:href="#L1_278" x="350" y="-350"/><use xlink:href="#L1_278" x="-350" y="0"/><use xlink:href="#L1_278" x="0" y="0"/><use xlink:href="#L1_278" x="350" y="0"/><use xlink:href="#L1_278" x="-350" y="350"/><use xlink:href="#L1_278" x="0" y="350"/><use xlink:href="#L1_278" x="350" y="350"/></pattern><rect x="0" y="0" width="100%" height="100%" fill="url(#pattern_L1_278)"/></g><g fi:class="KUsePattern"><pattern id="pattern_L1_279" width="350" height="350" patternUnits="userSpaceOnUse"><use xlink:href="#L1_279" x="-350" y="-350"/><use xlink:href="#L1_279" x="0" y="-350"/><use xlink:href="#L1_279" x="350" y="-350"/><use xlink:href="#L1_279" x="-350" y="0"/><use xlink:href="#L1_279" x="0" y="0"/><use xlink:href="#L1_279" x="350" y="0"/><use xlink:href="#L1_279" x="-350" y="350"/><use xlink:href="#L1_279" x="0" y="350"/><use xlink:href="#L1_279" x="350" y="350"/></pattern><rect x="0" y="0" width="100%" height="100%" fill="url(#pattern_L1_279)"/></g></svg>